<?xml version="1.0" encoding="UTF-8"?>
<svg id="Layer_1" data-name="Layer 1" xmlns="http://www.w3.org/2000/svg" viewBox="0 0 64 64">
  <defs>
    <style>
      .cls-1 {
        fill: #fff;
      }
    </style>
  </defs>
  <rect y="0" width="64" height="64" rx="3" ry="3"/>
  <g>
    <g>
      <path class="cls-1" d="M45.35,47.53c-2.35-4.02-4.68-8.05-7.01-12.09-2.03-3.51-4.06-7.02-6.1-10.52l-.24-.42-.24.42c-1.39,2.42-2.79,4.84-4.19,7.26-1.68,2.89-3.36,5.79-5.01,8.69l-.24.42h1.97c.83,0,1.66,0,2.5-.01h.16s.08-.14.08-.14c.6-1.03,1.19-2.06,1.79-3.1,1.07-1.85,2.13-3.71,3.22-5.55,1.33,2.32,2.67,4.63,4.02,6.95,1.62,2.78,3.23,5.57,4.83,8.36l.08.14h1.51c.89,0,1.77,0,2.66,0h.49s-.25-.42-.25-.42Z"/>
      <path class="cls-1" d="M37.59,47.52c-.32-.58-.65-1.15-.98-1.72-.32-.55-.64-1.1-.95-1.66l-.08-.14h-4.32c-3.46,0-6.93,0-10.39,0h-.16s-.68,1.18-.68,1.18c-.45.78-.9,1.57-1.37,2.35l-.25.42h.49c3.31-.01,6.61-.01,9.92-.01,2.85,0,5.69,0,8.54,0h.47s-.23-.41-.23-.41Z"/>
    </g>
    <path class="cls-1" d="M5.15,55.26L32,8.74l26.85,46.51H5.15ZM32,17.85L13.04,50.7h37.93S32,17.85,32,17.85Z"/>
  </g>
</svg>