<?xml version="1.0" encoding="UTF-8"?>
<svg id="Layer_1" data-name="Layer 1" xmlns="http://www.w3.org/2000/svg" viewBox="0 0 250 250">
  <defs>
    <style>
      .cls-1 {
        fill: #1d1d1b;
      }
    </style>
  </defs>
  <g>
    <path class="cls-1" d="M187.14,197.3c-10.93-18.72-21.79-37.49-32.64-56.26-9.45-16.34-18.9-32.67-28.4-48.98l-1.13-1.93-1.11,1.94c-6.47,11.28-13,22.53-19.52,33.78-7.81,13.47-15.62,26.93-23.34,40.45l-1.11,1.94,9.15-.02c3.87,0,7.75,0,11.63-.03h.74s.37-.65.37-.65c2.78-4.8,5.54-9.6,8.31-14.41,4.97-8.63,9.94-17.27,14.98-25.84,6.2,10.8,12.44,21.57,18.7,32.33,7.52,12.96,15.05,25.91,22.47,38.93l.37.65h7.04c4.12,0,8.24,0,12.36.04l2.28.02-1.15-1.97Z"/>
    <path class="cls-1" d="M151.02,197.27c-1.5-2.68-3.04-5.34-4.58-7.99-1.48-2.56-2.97-5.13-4.42-7.71l-.37-.66h-20.11c-16.12.02-32.24.03-48.37-.02h-.75s-3.18,5.5-3.18,5.5c-2.1,3.65-4.21,7.3-6.37,10.92l-1.17,1.97h2.29c15.39-.07,30.77-.06,46.17-.05,13.24,0,26.49.01,39.73-.03h2.21s-1.08-1.93-1.08-1.93Z"/>
  </g>
  <path class="cls-1" d="M0,233.25L125,16.75l125,216.51H0ZM125,59.15L36.72,212.05h176.55S125,59.15,125,59.15Z"/>
</svg>