<?xml version="1.0" encoding="UTF-8"?>
<svg id="Layer_1" data-name="Layer 1" xmlns="http://www.w3.org/2000/svg" viewBox="0 0 16 16">
  <defs>
    <style>
      .cls-1 {
        fill: #fff;
      }
    </style>
  </defs>
  <rect width="16" height="16" rx="1.03" ry="1.03"/>
  <g>
    <g>
      <path class="cls-1" d="M11.35,11.89c-.59-1.01-1.17-2.02-1.76-3.03-.51-.88-1.02-1.76-1.53-2.64l-.06-.1-.06.1c-.35.61-.7,1.21-1.05,1.82-.42.73-.84,1.45-1.26,2.18l-.06.1h.49c.21,0,.42,0,.63,0h.04s.02-.03.02-.03c.15-.26.3-.52.45-.78.27-.46.54-.93.81-1.39.33.58.67,1.16,1.01,1.74.41.7.81,1.4,1.21,2.1l.02.04h.38c.22,0,.44,0,.67,0h.12s-.06-.1-.06-.1Z"/>
      <path class="cls-1" d="M9.4,11.89c-.08-.14-.16-.29-.25-.43-.08-.14-.16-.28-.24-.41l-.02-.04h-1.08c-.87,0-1.74,0-2.6,0h-.04s-.17.3-.17.3c-.11.2-.23.39-.34.59l-.06.11h.12c.83,0,1.66,0,2.49,0,.71,0,1.43,0,2.14,0h.12s-.06-.1-.06-.1Z"/>
    </g>
    <path class="cls-1" d="M1.27,13.83L8,2.17l6.73,11.66H1.27ZM8,4.45L3.25,12.69h9.51S8,4.45,8,4.45Z"/>
  </g>
</svg>