<?xml version="1.0" encoding="UTF-8"?>
<svg id="Layer_1" data-name="Layer 1" xmlns="http://www.w3.org/2000/svg" viewBox="0 0 32 32">
  <defs>
    <style>
      .cls-1 {
        fill: #fff;
      }
    </style>
  </defs>
  <rect width="32" height="32" rx="1.75" ry="1.75"/>
  <g>
    <g>
      <path class="cls-1" d="M22.76,23.87c-1.19-2.04-2.37-4.08-3.55-6.12-1.03-1.78-2.06-3.55-3.09-5.33l-.12-.21-.12.21c-.7,1.23-1.41,2.45-2.12,3.67-.85,1.47-1.7,2.93-2.54,4.4l-.12.21h1c.42,0,.84,0,1.26,0h.08s.04-.07.04-.07c.3-.52.6-1.04.9-1.57.54-.94,1.08-1.88,1.63-2.81.67,1.17,1.35,2.35,2.03,3.52.82,1.41,1.64,2.82,2.44,4.24l.04.07h.77c.45,0,.9,0,1.34,0h.25s-.13-.21-.13-.21Z"/>
      <path class="cls-1" d="M18.83,23.86c-.16-.29-.33-.58-.5-.87-.16-.28-.32-.56-.48-.84l-.04-.07h-2.19c-1.75,0-3.51,0-5.26,0h-.08s-.35.6-.35.6c-.23.4-.46.79-.69,1.19l-.13.21h.25c1.67,0,3.35,0,5.02,0,1.44,0,2.88,0,4.32,0h.24s-.12-.21-.12-.21Z"/>
    </g>
    <path class="cls-1" d="M2.4,27.78L16,4.22l13.6,23.55H2.4ZM16,8.84L6.4,25.47h19.21S16,8.84,16,8.84Z"/>
  </g>
</svg>