<?xml version="1.0" encoding="UTF-8"?>
<svg id="Layer_1" data-name="Layer 1" xmlns="http://www.w3.org/2000/svg" viewBox="0 0 381.41 61.54">
  <defs>
    <style>
      .cls-1 {
        fill: #1d1d1b;
      }
    </style>
  </defs>
  <g>
    <path class="cls-1" d="M80.37,60.37c-1.3-.78-2.32-1.82-3.08-3.12-.76-1.29-1.14-2.72-1.14-4.29V10.28h6.9v12.4h16.08v6.9h-16.08v23.25c0,.49.18.92.54,1.27.36.36.78.54,1.27.54h14.27v6.9h-14.41c-1.61,0-3.06-.39-4.36-1.17Z"/>
    <path class="cls-1" d="M109.71,60.37c-1.3-.78-2.33-1.82-3.12-3.12-.78-1.29-1.17-2.72-1.17-4.29v-21.71c0-1.56.39-2.99,1.17-4.29.78-1.3,1.82-2.33,3.12-3.12,1.29-.78,2.72-1.17,4.29-1.17h22.31c1.61,0,3.06.39,4.35,1.17,1.29.78,2.33,1.82,3.12,3.12.78,1.3,1.17,2.72,1.17,4.29v14.34h-32.63v7.24c0,.49.18.92.54,1.27.36.36.78.54,1.27.54h30.82v6.9h-30.95c-1.56,0-2.99-.39-4.29-1.17ZM112.33,39.03h25.73v-7.64c0-.49-.19-.92-.57-1.27-.38-.36-.82-.54-1.31-.54h-22.04c-.49,0-.92.18-1.27.54-.36.36-.54.78-.54,1.27v7.64Z"/>
    <path class="cls-1" d="M152.59,61.54v-30.28c0-1.56.39-2.99,1.17-4.29.78-1.3,1.82-2.33,3.12-3.12,1.29-.78,2.72-1.17,4.29-1.17h21.77v6.9h-21.64c-.49,0-.92.18-1.27.54-.36.36-.54.78-.54,1.27v30.15h-6.9Z"/>
    <path class="cls-1" d="M188.44,61.54V22.68h49.98c1.61,0,3.06.39,4.36,1.17,1.29.78,2.32,1.82,3.08,3.12.76,1.3,1.14,2.72,1.14,4.29v30.28h-6.83v-30.15c0-.49-.19-.92-.57-1.27-.38-.36-.82-.54-1.31-.54h-15.21c-.49,0-.92.18-1.27.54-.36.36-.54.78-.54,1.27v30.15h-6.97v-30.15c0-.49-.19-.92-.57-1.27-.38-.36-.82-.54-1.31-.54h-15.21c-.49,0-.93.18-1.31.54-.38.36-.57.78-.57,1.27v30.15h-6.9Z"/>
    <path class="cls-1" d="M254.97,16.85v-6.9h6.9v6.9h-6.9ZM254.97,61.54V22.68h6.9v38.86h-6.9Z"/>
    <path class="cls-1" d="M270.65,61.54V22.68h30.95c1.56,0,2.99.39,4.29,1.17,1.29.78,2.33,1.82,3.12,3.12.78,1.3,1.17,2.72,1.17,4.29v30.28h-6.9v-30.15c0-.49-.18-.92-.54-1.27-.36-.36-.78-.54-1.27-.54h-22.04c-.49,0-.93.18-1.31.54-.38.36-.57.78-.57,1.27v30.15h-6.9Z"/>
    <path class="cls-1" d="M326.86,61.54c-1.56,0-2.99-.39-4.29-1.17-1.3-.78-2.33-1.82-3.12-3.12-.78-1.29-1.17-2.72-1.17-4.29v-14.34h32.63v-7.24c0-.49-.19-.92-.57-1.27-.38-.36-.82-.54-1.31-.54h-30.75v-6.9h30.89c1.61,0,3.06.39,4.35,1.17,1.29.78,2.33,1.82,3.12,3.12.78,1.3,1.17,2.72,1.17,4.29v30.28h-30.95ZM326.99,54.64h23.92v-9.45h-25.73v7.64c0,.49.18.92.54,1.27.36.36.78.54,1.27.54Z"/>
    <path class="cls-1" d="M369.2,60.37c-1.3-.78-2.33-1.82-3.12-3.12-.78-1.29-1.17-2.72-1.17-4.29V9.95h6.9v42.88c0,.49.19.92.57,1.27.38.36.81.54,1.31.54h6.9v6.9h-7.1c-1.56,0-2.99-.39-4.29-1.17Z"/>
  </g>
  <g>
    <g>
      <path class="cls-1" d="M52.96,51.52c-3.05-5.22-6.07-10.45-9.1-15.67-2.63-4.55-5.27-9.1-7.91-13.65l-.31-.54-.31.54c-1.8,3.14-3.62,6.28-5.44,9.41-2.18,3.75-4.35,7.5-6.5,11.27l-.31.54h2.55c1.08,0,2.16,0,3.24-.01h.21s.1-.18.1-.18c.77-1.34,1.54-2.68,2.32-4.01,1.38-2.41,2.77-4.81,4.17-7.2,1.73,3.01,3.47,6.01,5.21,9.01,2.1,3.61,4.19,7.22,6.26,10.85l.1.18h1.96c1.15,0,2.3,0,3.44,0h.64s-.32-.54-.32-.54Z"/>
      <path class="cls-1" d="M42.89,51.51c-.42-.75-.85-1.49-1.28-2.23-.41-.71-.83-1.43-1.23-2.15l-.1-.18h-5.6c-4.49,0-8.98,0-13.48,0h-.21s-.89,1.53-.89,1.53c-.59,1.02-1.17,2.03-1.78,3.04l-.33.55h.64c4.29-.02,8.57-.02,12.87-.02,3.69,0,7.38,0,11.07,0h.61s-.3-.54-.3-.54Z"/>
    </g>
    <path class="cls-1" d="M.81,61.54L35.64,1.21l34.83,60.32H.81ZM35.64,13.03L11.05,55.63h49.19S35.64,13.03,35.64,13.03Z"/>
  </g>
</svg>