<?xml version="1.0" encoding="UTF-8"?>
<svg id="Layer_1" data-name="Layer 1" xmlns="http://www.w3.org/2000/svg" viewBox="0 0 319.96 58.39">
  <defs>
    <style>
      .cls-1 {
        fill: #fff;
      }
    </style>
  </defs>
  <g>
    <path class="cls-1" d="M83.35,50.81c-.74.03-1.38.04-1.94.04-1.63,0-2.76-.32-3.39-.95-.63-.63-.95-1.73-.95-3.28v-23.2h8.27v-6.7h-8.27V5.94h-8.11v10.78h-6.89v6.7h6.89v24.19c0,3.3.94,5.79,2.82,7.47,1.9,1.68,4.76,2.51,8.57,2.51.89,0,1.8-.01,2.74-.04.94-.03,1.78-.08,2.51-.15l-.34-6.67c-.53.03-1.17.05-1.9.08Z"/>
    <path class="cls-1" d="M118.86,21.56c-1.68-1.85-3.67-3.26-5.98-4.23-2.29-.97-4.81-1.45-7.58-1.45-3.71,0-6.98.91-9.83,2.74-2.84,1.83-5.07,4.36-6.67,7.58-1.6,3.2-2.4,6.87-2.4,11.01s.77,7.81,2.32,11.01c1.55,3.17,3.77,5.66,6.67,7.47,2.92,1.8,6.39,2.7,10.4,2.7,3.05,0,5.8-.53,8.27-1.6,2.49-1.09,4.56-2.59,6.21-4.49,1.65-1.9,2.74-4.1,3.28-6.59l-7.77-.42c-.41,1.27-1.07,2.39-1.98,3.35-.89.94-1.99,1.68-3.31,2.21-1.32.51-2.84.76-4.57.76-2.41,0-4.48-.53-6.21-1.6-1.7-1.09-3.01-2.62-3.92-4.57-.82-1.75-1.27-3.77-1.35-6.06h29.73v-2.4c0-3.25-.47-6.17-1.41-8.76-.91-2.62-2.21-4.84-3.89-6.67ZM95.74,28.53c.91-1.85,2.18-3.29,3.81-4.3,1.65-1.04,3.59-1.56,5.83-1.56s4.2.52,5.83,1.56c1.63,1.02,2.87,2.46,3.73,4.34.66,1.37,1.07,2.94,1.24,4.69h-21.7c.16-1.75.58-3.33,1.26-4.72Z"/>
    <path class="cls-1" d="M146.48,16.23c-2.54,0-4.65.62-6.32,1.87-1.68,1.24-2.88,2.98-3.62,5.22h-.23v-6.59h-7.81v40.76h8.15v-24.23c0-2.13.38-3.91,1.14-5.33.76-1.42,1.8-2.49,3.12-3.2,1.32-.74,2.77-1.1,4.34-1.1.94,0,1.82.05,2.63.15.81.1,1.37.18,1.68.23v-7.58c-.36-.05-.81-.09-1.37-.11-.56-.05-1.13-.08-1.71-.08Z"/>
    <path class="cls-1" d="M204.07,17.6c-2.03-1.09-4.3-1.64-6.82-1.64-2.23,0-4.28.41-6.13,1.22-1.85.81-3.43,1.94-4.72,3.39-.83.95-1.51,2-2.04,3.15-.7-1.96-1.87-3.63-3.52-5.01-2.16-1.83-4.79-2.74-7.89-2.74-1.85,0-3.62.36-5.29,1.07-1.68.71-3.16,1.78-4.46,3.2-.89,1-1.65,2.18-2.26,3.52l-.06-7.02h-7.85v40.76h8.15v-24.76c0-2.11.41-3.87,1.22-5.29.81-1.45,1.89-2.53,3.24-3.24,1.35-.74,2.79-1.1,4.34-1.1,2.29,0,4.16.7,5.64,2.1,1.5,1.37,2.25,3.2,2.25,5.49v26.82h8v-25.64c0-1.7.34-3.21,1.03-4.53.71-1.32,1.71-2.35,3.01-3.09,1.3-.76,2.83-1.14,4.61-1.14,2.18,0,4.08.65,5.68,1.94,1.6,1.27,2.4,3.34,2.4,6.21v26.25h8.11v-26.97c0-3.23-.6-5.92-1.79-8.08s-2.81-3.77-4.84-4.84Z"/>
    <rect class="cls-1" x="217.1" y="16.72" width="8.15" height="40.76"/>
    <path class="cls-1" d="M221.18,0c-1.42,0-2.63.48-3.62,1.45-.99.97-1.49,2.13-1.49,3.5s.49,2.54,1.49,3.5c.99.97,2.2,1.45,3.62,1.45s2.67-.47,3.66-1.41c.99-.96,1.49-2.15,1.49-3.54s-.5-2.56-1.49-3.5c-.99-.96-2.21-1.45-3.66-1.45Z"/>
    <path class="cls-1" d="M259.43,17.83c-2.18-1.22-4.67-1.83-7.47-1.83-3.33,0-6.17.89-8.53,2.67-1.49,1.12-2.77,2.62-3.82,4.5l-.02-6.44h-7.92v40.76h8.15v-23.62c0-2.44.42-4.44,1.26-6.02.86-1.57,2.03-2.74,3.5-3.5,1.47-.76,3.12-1.14,4.95-1.14,2.82,0,5,.84,6.55,2.51,1.55,1.65,2.32,4.08,2.32,7.28v24.49h8.11v-25.48c0-3.53-.63-6.48-1.9-8.84-1.24-2.36-2.97-4.14-5.18-5.33Z"/>
    <path class="cls-1" d="M300.76,19.5c-1.45-1.17-3.16-2.04-5.14-2.63-1.96-.58-4.08-.88-6.36-.88-3.17,0-5.99.52-8.46,1.56-2.44,1.02-4.41,2.46-5.9,4.34-1.5,1.85-2.41,4.06-2.74,6.63l7.88.42c.18-1.17.66-2.22,1.45-3.16.79-.96,1.83-1.73,3.12-2.29,1.32-.58,2.84-.88,4.57-.88s3.2.29,4.42.88c1.22.58,2.15,1.4,2.78,2.44.63,1.02.95,2.21.95,3.58v.3c0,.97-.33,1.66-.99,2.1-.66.43-1.74.75-3.24.95-1.47.18-3.47.42-5.98.72-2.03.23-4.01.57-5.94,1.03-1.9.46-3.62,1.12-5.14,1.98-1.5.86-2.7,2.04-3.62,3.54-.89,1.47-1.33,3.38-1.33,5.71,0,2.69.61,4.95,1.83,6.78,1.24,1.83,2.92,3.21,5.03,4.15,2.13.91,4.55,1.37,7.24,1.37,2.29,0,4.22-.3,5.79-.91,1.6-.61,2.89-1.41,3.89-2.4,1.02-.99,1.8-2.02,2.36-3.09h.19v5.71h7.96v-27.73c0-2.26-.41-4.24-1.22-5.94-.79-1.73-1.92-3.16-3.39-4.3ZM297.37,42.36c0,1.65-.39,3.19-1.18,4.61-.76,1.4-1.93,2.53-3.5,3.39-1.55.86-3.49,1.3-5.83,1.3-1.55,0-2.91-.22-4.08-.65-1.14-.46-2.03-1.1-2.67-1.94-.63-.84-.95-1.85-.95-3.05,0-1.4.38-2.51,1.14-3.35.79-.86,1.82-1.52,3.09-1.98,1.29-.48,2.68-.83,4.15-1.03.99-.13,1.99-.27,3.01-.42,1.04-.18,2.02-.36,2.93-.53.94-.18,1.75-.37,2.44-.57.69-.2,1.17-.42,1.45-.65v4.88Z"/>
    <rect class="cls-1" x="311.81" y=".72" width="8.15" height="56.76"/>
  </g>
  <g>
    <polygon class="cls-1" points="0 5.94 19.04 38.93 25.3 28.18 12.53 5.94 0 5.94"/>
    <polygon class="cls-1" points="18.72 11.65 24.8 22.43 51.09 22.43 57.29 11.65 18.72 11.65"/>
    <polygon class="cls-1" points="30.38 25.16 42.9 25.16 23.75 58.39 17.48 47.58 30.38 25.16"/>
  </g>
</svg>